<svg xmlns="http://www.w3.org/2000/svg" xmlns:xlink="http://www.w3.org/1999/xlink" width="1342.6" height="479.932" viewBox="0 0 1006.95 359.949">
    <defs>
        <path id="f" d="M0 0Z"/>
        <path id="a" d="M.094.018A.073.073 0 0 0 .04.04a.073.073 0 0 0 0 .106.074.074 0 0 0 .053.023.07.07 0 0 0 .054-.022A.073.073 0 0 0 .17.094.074.074 0 0 0 .147.04.072.072 0 0 0 .094.018Z"/>
    </defs>
    <defs>
        <path id="g" d="M.33-.175a.718.718 0 0 0-.128.006.517.517 0 0 0-.111.028.218.218 0 0 0-.078.047c-.009.01-.01.017-.004.022a.028.028 0 0 0 .019.007c.009 0 .02.005.033.014a.256.256 0 0 1 .065.066c.004.007.01.009.018.006A.096.096 0 0 0 .17.011a.279.279 0 0 1 .084-.033A.504.504 0 0 1 .42-.03a.736.736 0 0 1 .055.008c.01.001.015.006.015.013 0 .008-.005.01-.013.01a.627.627 0 0 0-.165-.01.199.199 0 0 0-.12.046C.163.064.148.107.148.164a.245.245 0 0 0 .11.204.187.187 0 0 0 .205.004A.29.29 0 0 0 .539.3.625.625 0 0 0 .63.102.359.359 0 0 0 .641.018a.272.272 0 0 0-.004-.05.102.102 0 0 0-.018-.043.167.167 0 0 0-.074-.056.466.466 0 0 0-.107-.032.886.886 0 0 0-.108-.013M.351.2c.01 0 .015.006.015.016a.014.014 0 0 1-.004.011.014.014 0 0 1-.01.004C.34.231.334.226.334.216.335.206.34.2.351.2z"/>
        <path id="h" d="M.259-.01A.451.451 0 0 0 .12.016a.208.208 0 0 0-.103.079.19.19 0 0 0-.029.177.27.27 0 0 0 .124.148C.151.44.19.46.228.472A.338.338 0 0 1 .22.49c0 .007.003.013.014.019A.225.225 0 0 1 .283.54C.3.554.313.57.319.587c.004.01.01.014.018.013C.345.6.35.595.35.587A6.19 6.19 0 0 0 .41.156C.411.144.416.137.424.137V0h-.1a.171.171 0 0 0-.065-.01M.247.164C.252.163.255.164.26.167A.016.016 0 0 1 .264.18C.264.188.259.193.25.195A.019.019 0 0 1 .238.191.013.013 0 0 1 .232.18c0-.01.005-.016.015-.016M.23.3a.01.01 0 0 1 .01.004.024.024 0 0 1 .006.011C.245.325.24.33.23.331.22.331.214.326.214.316A.011.011 0 0 1 .217.305.016.016 0 0 1 .23.3z"/>
        <path id="i" d="M-.025 0v.137h.048L.017.315a22 22 0 0 1-.024.427c0 .007.004.014.012.02A.588.588 0 0 1 .068.82a.22.22 0 0 1 .023.031c.007.012.014.016.02.013C.118.861.121.853.122.84A40.354 40.354 0 0 0 .154.145.23.23 0 0 0 .143.048.065.065 0 0 0 .099.009.333.333 0 0 0 .023 0Z"/>
        <path id="j" d="M.327-.051a.373.373 0 0 0-.177.039.232.232 0 0 0-.1.103.363.363 0 0 0-.032.154A8.348 8.348 0 0 1 0 .742c0 .006.001.01.005.013.01.006.02.015.033.026A.518.518 0 0 1 .075.82C.087.832.095.845.1.856.104.866.11.87.117.87.124.87.127.862.129.845A2.39 2.39 0 0 0 .126.64L.124.5C.123.455.124.412.126.373A.465.465 0 0 1 .141.274.193.193 0 0 1 .227.159.372.372 0 0 1 .37.109a.593.593 0 0 1 .251.02.207.207 0 0 1 .084.045C.71.18.714.18.719.177.724.174.725.17.721.161a.304.304 0 0 0-.09-.117.408.408 0 0 0-.138-.071.566.566 0 0 0-.166-.024Z"/>
        <path id="k" d="M.027.019C.026.017.023.016.02.016.012.016.008.02.008.03c0 .004.001.007.004.01A.775.775 0 0 1 .11.139a.012.012 0 0 0 .01.005C.128.144.133.14.133.13A.612.612 0 0 0 .028.018Z"/>
        <path id="l" d="M.215-.006a.935.935 0 0 0-.129.008.151.151 0 0 0-.072.023C.004.032 0 .038 0 .045c.001.007.007.01.017.01.004 0 .01.001.014.004a.356.356 0 0 1 .04.042l.03.045C.113.16.127.162.147.15A.128.128 0 0 1 .19.139.53.53 0 0 1 .25.133L.348.129a4.95 4.95 0 0 1 .57.014C.923.146.924.15.922.155A.016.016 0 0 1 .917.16 3.089 3.089 0 0 0 .634.15a7.317 7.317 0 0 0-.318.004 1.343 1.343 0 0 0-.114.01C.157.169.143.182.16.205l.084.113C.27.356.297.395.32.434.324.44.329.443.334.44.34.438.341.433.337.425a12.83 12.83 0 0 0-.05-.118A4.394 4.394 0 0 1 .774.3 57.418 57.418 0 0 1 1 .306c.015.001.025-.002.03-.01a.193.193 0 0 0 .02-.035V.26l.033-.081a.322.322 0 0 0 .02-.109.045.045 0 0 0-.012-.032V0a15.847 15.847 0 0 0-.87-.006z"/>
        <path id="m" d="M-.025 0v.137h.058A.174.174 0 0 0 .02.243a.277.277 0 0 0 .123.172.623.623 0 0 0 .112.059.091.091 0 0 1-.008.017C.244.5.247.505.258.51a.22.22 0 0 1 .047.034.114.114 0 0 1 .034.05c.003.009.009.013.017.013A.016.016 0 0 0 .37.595 2.773 2.773 0 0 0 .423.339l.019-.12a.94.94 0 0 0 .01-.102A.11.11 0 0 0 .418.03C.395.006.359-.005.31-.006A.81.81 0 0 0 .22 0h-.245m.289.301c.01 0 .015.006.015.017a.014.014 0 0 1-.005.01.014.014 0 0 1-.01.005C.253.333.247.328.247.318.247.307.253.3.264.3M.29.166c.01 0 .015.006.015.016a.014.014 0 0 1-.004.011.014.014 0 0 1-.011.004C.28.197.274.192.274.182c0-.01.005-.016.016-.016z"/>
        <path id="n" d="M.286-.441A.293.293 0 0 0 .211-.46a.48.48 0 0 0-.183.015.234.234 0 0 0-.072.031c-.007.005-.012.011-.013.018-.001.007.003.012.012.015a.16.16 0 0 1 .048.037c.017.018.035.04.052.066.003.004.005.005.009.005A.236.236 0 0 1 .138-.3a.368.368 0 0 1 .098-.005 1.825 1.825 0 0 1-.005.297.261.261 0 0 1-.035.114.145.145 0 0 1-.074.053.918.918 0 0 1-.12.032C-.01.194-.016.2-.017.206c0 .007.005.011.015.014a.205.205 0 0 1 .083.049.148.148 0 0 1 .05.085c0 .006.003.01.005.01A.04.04 0 0 0 .151.363h.003a.203.203 0 0 0 .14-.097.432.432 0 0 0 .052-.181 1.654 1.654 0 0 0 .005-.248A3.337 3.337 0 0 0 .339-.35a.216.216 0 0 0-.018-.057.071.071 0 0 0-.035-.035z"/>
        <path id="p" d="M.027.042.02.04C.012.04.008.044.008.052c0 .004.001.008.004.01.019.014.036.03.052.047L.11.162a.012.012 0 0 0 .01.005C.128.167.133.163.133.155A.612.612 0 0 0 .028.042M.064.01C.063.007.061.006.058.006.049.006.045.011.045.02c0 .004.002.007.005.01a.45.45 0 0 1 .051.047L.148.13a.012.012 0 0 0 .01.005C.166.134.17.13.17.121.17.118.17.116.168.114A.612.612 0 0 0 .065.009Z"/>
        <path id="q" d="M.66-.329a1.04 1.04 0 0 0-.271-.025C.348-.353.313-.35.284-.348a.449.449 0 0 0-.072.015.265.265 0 0 0-.045.018c-.016.01-.024.019-.023.03 0 .01.006.015.015.015.006 0 .016.005.027.014a1.113 1.113 0 0 1 .075.08c.006.006.013.01.02.009a.043.043 0 0 0 .02-.007A.248.248 0 0 1 .388-.2a.677.677 0 0 1 .15-.003c0 .012-.01.018-.03.018a.822.822 0 0 0-.1.005.272.272 0 0 0-.07.016c-.023.01-.035.023-.036.04a.082.082 0 0 0 .005.042.526.526 0 0 0 .023.043l.024.043A.929.929 0 0 0 .266 0c-.06 0-.11.01-.15.027A.201.201 0 0 0 .03.1.18.18 0 0 0 0 .199c0 .045.01.087.029.125A.24.24 0 0 0 .11.418a.213.213 0 0 0 .122.036.135.135 0 0 0 .09-.034.315.315 0 0 0 .073-.082.482.482 0 0 0 .067-.2h.004V0H.435a.07.07 0 0 1-.004-.009A.106.106 0 0 1 .49-.03a.71.71 0 0 1 .075-.004A1.029 1.029 0 0 1 .63-.039c.012 0 .023-.007.034-.02a.103.103 0 0 0 .021-.037.607.607 0 0 0 .02-.07.377.377 0 0 0 .007-.08.103.103 0 0 0-.015-.052C.687-.315.675-.325.66-.328m-.424.55c.01 0 .015.006.015.017a.014.014 0 0 1-.004.01.014.014 0 0 1-.01.005C.224.254.22.249.22.239.22.228.225.223.236.223M.41.07v.003V.07z"/>
        <path id="r" d="M-.025 0v.137H.11a.678.678 0 0 0-.087.08.027.027 0 0 0-.011.015c0 .005.003.01.01.014a.443.443 0 0 1 .09.099.022.022 0 0 0 .014.009c.005 0 .01-.002.015-.008A.523.523 0 0 1 .29.226.655.655 0 0 1 .464.163C.525.15.59.143.657.14.725.136.794.135.865.135.872.135.876.133.878.129.88.126.88.121.875.115a.361.361 0 0 0-.083-.09A.067.067 0 0 0 .76.011.241.241 0 0 0 .72.008 15.535 15.535 0 0 1 .432.006 23.107 23.107 0 0 1-.025 0Z"/>
        <path id="s" d="M0 .169a15.313 15.313 0 0 1-.028.574c0 .006.004.013.012.02A.588.588 0 0 1 .046.82.174.174 0 0 1 .07.851c.007.012.013.016.02.013C.097.861.1.853.101.84A51.918 51.918 0 0 1 .123.37C.127.297.13.23.131.17z"/>
        <path id="t" d="M.247-.415a.752.752 0 0 0-.213.01.205.205 0 0 0-.079.03.028.028 0 0 0-.012.018c-.001.006.003.011.012.015a.188.188 0 0 1 .05.036.24.24 0 0 1 .05.066c.002.004.004.006.008.005a.027.027 0 0 0 .01-.004.11.11 0 0 1 .05-.017.375.375 0 0 1 .09 0 3.593 3.593 0 0 1 0 .291.205.205 0 0 1-.031.102.213.213 0 0 1-.065.06 1.107 1.107 0 0 1-.083.047C.024.249.019.254.019.26c0 .007.009.012.025.014a.103.103 0 0 1 .063.04c.018.021.028.05.032.083 0 .006.003.01.006.01L.161.405h.003A.171.171 0 0 0 .227.372.226.226 0 0 0 .275.32C.392.305.505.298.617.299a11.808 11.808 0 0 1 .404.008c.015.001.025-.002.03-.009a.194.194 0 0 0 .02-.036L1.104.18a.322.322 0 0 0 .02-.109c0-.01-.003-.02-.009-.029V0a89.206 89.206 0 0 0-.58-.005c-.072 0-.14.002-.202.004V-.09c0-.028 0-.054-.002-.077V-.25a.4.4 0 0 0-.015-.12C.31-.39.301-.4.286-.405a.187.187 0 0 0-.039-.01m.66.552C.924.14.934.141.938.144S.943.151.94.156a.016.016 0 0 1-.004.005C.935.163.93.163.924.163a2.725 2.725 0 0 0-.262-.01A15.422 15.422 0 0 0 .325.16.039.039 0 0 1 .333.146C.337.142.344.14.355.14A.62.62 0 0 0 .413.136 8.658 8.658 0 0 1 .726.131c.06 0 .12.002.18.006z"/>
        <path id="u" d="M-.025 0v.137h.04a2.956 2.956 0 0 1-.008.241c.001.01.005.019.013.024a.28.28 0 0 1 .047.046c.017.02.028.04.034.06.004.01.01.016.015.016.006 0 .01-.005.012-.014A.358.358 0 0 0 .134.44V.332A.03.03 0 0 1 .135.317 2.97 2.97 0 0 1 .376.303H.62l.235.004C.869.308.879.305.884.298a.193.193 0 0 0 .02-.036L.937.18a.322.322 0 0 0 .02-.109c0-.01-.004-.02-.01-.029V0a101.254 101.254 0 0 0-.613-.005A29.24 29.24 0 0 0-.025 0m.764.137C.757.14.768.141.77.144c.004.003.004.007.003.012a.016.016 0 0 1-.005.005C.767.163.763.163.756.163a2.725 2.725 0 0 0-.261-.01A15.422 15.422 0 0 0 .158.16.039.039 0 0 1 .166.146C.169.142.176.14.187.14A.62.62 0 0 0 .245.136 8.657 8.657 0 0 1 .559.131c.06 0 .12.002.18.006z"/>
        <path id="v" d="M-.144.012v.293l.052.001c.01 0 .019-.002.024-.006A.038.038 0 0 0-.056.287.46.46 0 0 1 .02.191.81.81 0 0 1 .09.13V.012Z"/>
        <path id="w" d="M-.025 0v.137h.114a.245.245 0 0 0-.05.065.18.18 0 0 0-.02.087.21.21 0 0 0 .034.119.242.242 0 0 0 .2.108A.18.18 0 0 0 .36.482.243.243 0 0 0 .44.385a.344.344 0 0 0 .03-.15A1.74 1.74 0 0 0 .467.137h.004V0h-.496M.26.298c.01 0 .015.005.015.016a.014.014 0 0 1-.004.01A.014.014 0 0 1 .26.33C.25.329.244.324.244.314.244.303.249.298.26.298z"/>
        <path id="x" d="M.246 0C.082.004 0 .063 0 .176c0 .05.02.097.063.141.041.045.105.08.192.106 0 .011 0 .018.002.021a.028.028 0 0 0 .01.008l.01.004a.128.128 0 0 1 .049.049.49.49 0 0 1 .024.051C.354.566.36.57.365.57.371.568.375.563.378.553A.537.537 0 0 0 .392.477.934.934 0 0 0 .402.38 21.167 21.167 0 0 1 .42.196a.505.505 0 0 1 .006-.04C.428.144.433.137.44.137V0a1.14 1.14 0 0 0-.086-.002L.246 0m.035.193c.01 0 .015.005.015.016a.014.014 0 0 1-.004.01.014.014 0 0 1-.01.005C.27.224.264.219.264.209.265.198.27.193.281.193z"/>
        <path id="y" d="M.286-.504A.293.293 0 0 0 .211-.52a.48.48 0 0 0-.183.014.234.234 0 0 0-.072.032c-.007.005-.012.01-.013.018-.001.006.003.011.012.014a.16.16 0 0 1 .048.037c.017.018.035.04.052.066.003.004.005.006.009.005a.236.236 0 0 1 .074-.028.368.368 0 0 1 .098-.004 1.825 1.825 0 0 1-.005.297.261.261 0 0 1-.035.113.145.145 0 0 1-.074.054.918.918 0 0 1-.12.032c-.012 0-.018.006-.019.013 0 .007.005.012.015.015a.202.202 0 0 1 .083.048.148.148 0 0 1 .05.085c0 .007.003.01.005.01A.04.04 0 0 0 .151.3h.003a.203.203 0 0 0 .14-.097.427.427 0 0 0 .052-.18 1.654 1.654 0 0 0 .005-.249A3.337 3.337 0 0 0 .339-.41a.216.216 0 0 0-.018-.057.071.071 0 0 0-.035-.036z"/>
        <path id="z" d="M.293-.042a.475.475 0 0 0-.16.022.218.218 0 0 0-.095.062.186.186 0 0 0-.042.088.292.292 0 0 0 .144.292.25.25 0 0 0 .121.03.166.166 0 0 0 .104-.036.287.287 0 0 0 .076-.085.456.456 0 0 0 .062-.214A.193.193 0 0 0 .482.02a.108.108 0 0 0-.067-.048.493.493 0 0 0-.122-.014M.26.185c.01 0 .015.005.015.016a.014.014 0 0 1-.004.01.014.014 0 0 1-.011.005C.25.216.244.211.244.201c0-.01.005-.016.016-.016z"/>
        <path id="A" d="M.08 0C.05 0 .028.006.018.018A.078.078 0 0 0 0 .068L-.006.39a3.133 3.133 0 0 1-.012.277.688.688 0 0 0-.004.073c0 .014.006.024.016.031a.226.226 0 0 1 .089.091c.004.007.01.01.016.009.006 0 .01-.008.01-.02A23.663 23.663 0 0 1 .126.16C.13.144.134.136.14.136V0Z"/>
        <path id="B" d="M.346-.012H.311c-.054 0-.11.003-.168.006A2.608 2.608 0 0 1-.025 0v.137h.048L.02.154a.375.375 0 0 0 .083.213.407.407 0 0 0 .089.073A.217.217 0 0 0 .3.467c.031 0 .061-.01.09-.03A.287.287 0 0 0 .463.356.452.452 0 0 0 .531.125.157.157 0 0 0 .516.056a.109.109 0 0 0-.055-.05.28.28 0 0 0-.115-.018M.326.21c.01 0 .015.005.015.016a.014.014 0 0 1-.004.01.014.014 0 0 1-.01.005C.314.241.31.236.31.226.31.216.315.21.326.21z"/>
        <path id="C" d="M.33-.071a.718.718 0 0 0-.128.006.517.517 0 0 0-.111.028.218.218 0 0 0-.078.047C.004.02.003.026.009.031A.028.028 0 0 0 .028.04c.009 0 .02.004.033.014A.256.256 0 0 1 .126.12c.004.006.01.009.018.006A.096.096 0 0 0 .17.114.279.279 0 0 1 .253.082.506.506 0 0 1 .42.074.74.74 0 0 1 .476.08c.01.002.015.007.015.014S.486.105.478.104a.627.627 0 0 0-.165-.01.199.199 0 0 0-.12.047C.163.168.148.21.148.268a.245.245 0 0 0 .11.204c.032.02.068.032.108.032.035 0 .067-.01.097-.028A.29.29 0 0 0 .539.402.625.625 0 0 0 .63.205.359.359 0 0 0 .641.122a.273.273 0 0 0-.004-.05A.102.102 0 0 0 .619.03a.167.167 0 0 0-.074-.057.466.466 0 0 0-.108-.032A.886.886 0 0 0 .33-.07m.021.375c.01 0 .015.005.015.016a.014.014 0 0 1-.004.01.014.014 0 0 1-.01.005C.34.335.334.33.334.32.335.31.34.304.351.304z"/>
        <path id="D" d="M.247-.018a.311.311 0 0 0-.184.051.147.147 0 0 0-.062.126.191.191 0 0 0 .035.105.247.247 0 0 0 .09.077c.039.02.082.03.13.031l-.001.01c0 .003.002.005.005.008a.275.275 0 0 0 .03.019.108.108 0 0 1 .035.042l.024.054c.003.008.007.01.012.01S.37.51.371.504a.93.93 0 0 0 .03-.167L.415.151c0-.006.003-.01.007-.012C.426.136.429.136.432.137a2.436 2.436 0 0 1-.05.446.08.08 0 0 0 0 .026.03.03 0 0 0 .01.019.237.237 0 0 1 .08.106.023.023 0 0 0 .014.015C.492.75.496.745.497.73.512.638.524.542.534.445A3.17 3.17 0 0 0 .55.155C.55.147.553.142.557.141A.026.026 0 0 1 .57.14C.57.22.565.306.559.4A10.42 10.42 0 0 1 .53.716c0 .005 0 .01.004.014a.7.7 0 0 0 .05.055.175.175 0 0 1 .039.048c.006.011.014.016.022.013C.654.843.658.834.659.82a69.29 69.29 0 0 0 .03-.675.17.17 0 0 0-.015-.094A.092.092 0 0 0 .622.01a.4.4 0 0 0-.08-.017 6.393 6.393 0 0 0-.103-.008 1.253 1.253 0 0 0-.088-.003l-.104.001m.023.18c.01 0 .015.006.015.017a.014.014 0 0 1-.004.01.014.014 0 0 1-.011.005C.26.194.254.189.254.179.254.168.259.163.27.163z"/>
        <path id="E" d="M.609-.025a1.493 1.493 0 0 0-.48-.007.4.4 0 0 0-.118.038C.004.01.001.016.003.024A.063.063 0 0 0 .017.05a.72.72 0 0 1 .028.03 13.98 13.98 0 0 1 .136.15l.066.072a2.43 2.43 0 0 0-.21.364.043.043 0 0 0-.006.02c0 .006.004.012.011.017A.26.26 0 0 1 .12.816c.003.008.007.012.012.012S.142.824.145.815C.16.775.185.725.219.661A2.5 2.5 0 0 1 .35.446c.017.04.027.082.03.127a.976.976 0 0 1 0 .152v.027a.022.022 0 0 0 .01.016c.02.011.037.024.055.037a.145.145 0 0 1 .041.044c.01.015.016.022.02.021C.512.87.515.86.515.845A1.87 1.87 0 0 0 .494.566a.768.768 0 0 0-.07-.222A3.714 3.714 0 0 1 .62.096C.646.066.657.04.654.016.65-.006.635-.02.609-.025m-.283.17c.01 0 .015.005.015.016a.014.014 0 0 1-.004.01.014.014 0 0 1-.01.005C.314.176.31.171.31.161c0-.01.005-.016.016-.016z"/>
        <path id="J" d="M.094.018A.073.073 0 0 0 .04.04a.073.073 0 0 0 0 .106.074.074 0 0 0 .053.023.07.07 0 0 0 .054-.022A.073.073 0 0 0 .17.094.074.074 0 0 0 .147.04.072.072 0 0 0 .094.018m0 .167A.073.073 0 0 0 .04.21a.073.073 0 0 0 0 .106.074.074 0 0 0 .053.023.08.08 0 0 0 .054-.024A.073.073 0 0 0 .17.262.074.074 0 0 0 .147.209.072.072 0 0 0 .094.185Z"/>
        <g id="H">
            <defs>
                <use xlink:href="#a" id="b"/>
            </defs>
            <use xlink:href="#b" fill="#d4af37"/>
        </g>
        <g id="F">
            <defs>
                <use xlink:href="#a" id="c"/>
            </defs>
            <use xlink:href="#c" fill="#902900" fill-opacity=".902"/>
        </g>
        <g id="K">
            <defs>
                <path id="d" d="M.094.018A.073.073 0 0 0 .04.04a.073.073 0 0 0 0 .106.074.074 0 0 0 .053.023.07.07 0 0 0 .054-.022A.073.073 0 0 0 .17.094.074.074 0 0 0 .147.04.072.072 0 0 0 .094.018m.167 0A.073.073 0 0 0 .208.04a.073.073 0 0 0 0 .106.074.074 0 0 0 .053.023.07.07 0 0 0 .054-.022.073.073 0 0 0 .022-.053A.074.074 0 0 0 .315.04.072.072 0 0 0 .261.018Z"/>
            </defs>
            <use xlink:href="#d" fill="#902900" fill-opacity=".902"/>
        </g>
        <g id="I">
            <defs>
                <use xlink:href="#a" id="e"/>
            </defs>
            <use xlink:href="#e" fill="#902900" fill-opacity=".902"/>
        </g>
        <use xlink:href="#f" id="o"/>
        <use xlink:href="#a" id="G" fill="#902900" fill-opacity=".902"/>
    </defs>
    <rect x="506" y="0" fill="#ffffd5" width="500" height="360"/>
    <rect x="0" y="0" fill="#ffffd5" width="500" height="360"/>
    <use xlink:href="#g" fill="#190300" transform="matrix(45 0 0 -45 567.05 105.299)"/>
    <use xlink:href="#h" fill="#190300" transform="matrix(45 0 0 -45 594.7 105.299)"/>
    <use xlink:href="#i" fill="#190300" transform="matrix(45 0 0 -45 612.75 105.299)"/>
    <use xlink:href="#f" fill="#190300" transform="matrix(45 0 0 -45 630.4 105.299)"/>
    <use xlink:href="#j" fill="#190300" transform="matrix(45 0 0 -45 652.9 105.299)"/>
    <use xlink:href="#f" fill="#190300" transform="matrix(45 0 0 -45 696.1 105.299)"/>
    <use xlink:href="#k" fill="#190300" transform="matrix(45 0 0 -45 742.65 91.299)"/>
    <use xlink:href="#l" fill="#190300" transform="matrix(45 0 0 -45 718.65 105.299)"/>
    <use xlink:href="#m" fill="#190300" transform="matrix(45 0 0 -45 767.9 105.299)"/>
    <use xlink:href="#f" fill="#190300" transform="matrix(45 0 0 -45 798.9 105.299)"/>
    <use xlink:href="#k" fill="#190300" transform="matrix(45 0 0 -45 820.95 94.599)"/>
    <use xlink:href="#n" fill="#190300" transform="matrix(45 0 0 -45 821.45 105.299)"/>
    <use xlink:href="#o" fill="#190300" transform="matrix(45 0 0 -45 837.25 105.299)"/>
    <use xlink:href="#o" fill="#190300" transform="matrix(45 0 0 -45 839.275 105.299)"/>
    <use xlink:href="#f" fill="#190300" transform="matrix(45 0 0 -45 851.965 105.299)"/>
    <use xlink:href="#j" fill="#190300" transform="matrix(45 0 0 -45 874.55 105.299)"/>
    <use xlink:href="#p" fill="#190300" transform="matrix(45 0 0 -45 563.55 142.149)"/>
    <use xlink:href="#q" fill="#190300" transform="matrix(45 0 0 -45 567.05 157.049)"/>
    <use xlink:href="#r" fill="#190300" transform="matrix(45 0 0 -45 588.05 157.049)"/>
    <use xlink:href="#s" fill="#190300" transform="matrix(45 0 0 -45 599.165 157.049)"/>
    <use xlink:href="#f" fill="#190300" transform="matrix(45 0 0 -45 637.685 157.049)"/>
    <use xlink:href="#j" fill="#190300" transform="matrix(45 0 0 -45 660.185 157.049)"/>
    <use xlink:href="#f" fill="#190300" transform="matrix(45 0 0 -45 700.865 157.049)"/>
    <use xlink:href="#t" fill="#190300" transform="matrix(45 0 0 -45 723.45 157.049)"/>
    <use xlink:href="#u" fill="#190300" transform="matrix(45 0 0 -45 773.1 157.049)"/>
    <use xlink:href="#p" fill="#190300" transform="matrix(45 0 0 -45 813.4 137.849)"/>
    <use xlink:href="#v" fill="#190300" transform="matrix(45 0 0 -45 815.7 157.049)"/>
    <use xlink:href="#w" fill="#190300" transform="matrix(45 0 0 -45 815.7 157.049)"/>
    <use xlink:href="#i" fill="#190300" transform="matrix(45 0 0 -45 836.95 157.049)"/>
    <use xlink:href="#f" fill="#190300" transform="matrix(45 0 0 -45 852.1 157.049)"/>
    <use xlink:href="#j" fill="#190300" transform="matrix(45 0 0 -45 874.6 157.049)"/>
    <use xlink:href="#j" fill="#190300" transform="matrix(45 0 0 -45 567.15 208.799)"/>
    <use xlink:href="#f" fill="#190300" transform="matrix(45 0 0 -45 607.35 208.799)"/>
    <use xlink:href="#x" fill="#190300" transform="matrix(45 0 0 -45 629.9 208.799)"/>
    <use xlink:href="#i" fill="#190300" transform="matrix(45 0 0 -45 648.75 208.799)"/>
    <use xlink:href="#f" fill="#190300" transform="matrix(45 0 0 -45 663.35 208.799)"/>
    <use xlink:href="#j" fill="#190300" transform="matrix(45 0 0 -45 685.85 208.799)"/>
    <use xlink:href="#f" fill="#190300" transform="matrix(45 0 0 -45 726.05 208.799)"/>
    <use xlink:href="#k" fill="#190300" transform="matrix(45 0 0 -45 748 200.899)"/>
    <use xlink:href="#y" fill="#190300" transform="matrix(45 0 0 -45 748.5 208.799)"/>
    <use xlink:href="#z" fill="#190300" transform="matrix(45 0 0 -45 762.2 208.799)"/>
    <use xlink:href="#o" fill="#190300" transform="matrix(45 0 0 -45 784.65 208.799)"/>
    <use xlink:href="#o" fill="#190300" transform="matrix(45 0 0 -45 786.675 208.799)"/>
    <use xlink:href="#f" fill="#190300" transform="matrix(45 0 0 -45 796.35 208.799)"/>
    <use xlink:href="#A" fill="#190300" transform="matrix(45 0 0 -45 818.805 208.799)"/>
    <use xlink:href="#B" fill="#190300" transform="matrix(45 0 0 -45 824.25 208.799)"/>
    <use xlink:href="#f" fill="#190300" transform="matrix(45 0 0 -45 855.795 208.799)"/>
    <use xlink:href="#C" fill="#190300" transform="matrix(45 0 0 -45 878.295 208.799)"/>
    <use xlink:href="#k" fill="#190300" transform="matrix(45 0 0 -45 566.55 249.849)"/>
    <use xlink:href="#n" fill="#190300" transform="matrix(45 0 0 -45 567.05 260.549)"/>
    <use xlink:href="#f" fill="#190300" transform="matrix(45 0 0 -45 594.4 260.549)"/>
    <use xlink:href="#j" fill="#190300" transform="matrix(45 0 0 -45 616.95 260.549)"/>
    <use xlink:href="#f" fill="#190300" transform="matrix(45 0 0 -45 661 260.549)"/>
    <use xlink:href="#C" fill="#190300" transform="matrix(45 0 0 -45 683.5 260.549)"/>
    <use xlink:href="#f" fill="#190300" transform="matrix(45 0 0 -45 723.64 260.549)"/>
    <use xlink:href="#D" fill="#190300" transform="matrix(45 0 0 -45 746.2 260.549)"/>
    <use xlink:href="#f" fill="#190300" transform="matrix(45 0 0 -45 788.65 260.549)"/>
    <use xlink:href="#j" fill="#190300" transform="matrix(45 0 0 -45 811.15 260.549)"/>
    <use xlink:href="#f" fill="#190300" transform="matrix(45 0 0 -45 855.16 260.549)"/>
    <use xlink:href="#E" fill="#190300" transform="matrix(45 0 0 -45 877.66 260.549)"/>
    <path d="M112.625 93.524a.534.534 0 0 1 .45-.225c.375 0 .562.187.562.562 0 .15-.037.263-.112.338a48.405 48.405 0 0 1-2.025 2.447 51.888 51.888 0 0 1-2.194 2.334.54.54 0 0 1-.394.17c-.375 0-.562-.188-.562-.563a.54.54 0 0 1 .169-.394 48.111 48.111 0 0 0 4.106-4.669zm.406 18.581c-2.512.038-4.875-.253-7.087-.872-2.212-.618-3.919-1.321-5.119-2.109-.45-.3-.647-.582-.59-.844.056-.263.271-.469.646-.618.863-.3 1.66-.854 2.39-1.66a43.826 43.826 0 0 0 1.942-2.278c.224-.3.562-.319 1.012-.056 1.05.562 2.362 1.04 3.937 1.434 1.575.394 3.122.675 4.641.844 1.519.169 2.71.197 3.572.084.3-.037.422-.178.366-.422-.056-.243-.197-.365-.422-.365-.9.037-1.95-.01-3.15-.14a25.127 25.127 0 0 1-3.544-.647c-1.163-.3-2.175-.676-3.037-1.126-.413-.225-.591-.497-.535-.815.057-.319.197-.572.422-.76.525-.525 1.162-1.172 1.912-1.94.75-.77 1.51-1.576 2.279-2.42.769-.843 1.481-1.62 2.137-2.333a58.543 58.543 0 0 1 1.547-1.632l.365-.365a.495.495 0 0 1 .366-.14c.188 0 .47.13.844.393 1.238.825 2.437 1.94 3.6 3.346a21.813 21.813 0 0 1 2.925 4.613c.788 1.669 1.2 3.328 1.238 4.979a7.084 7.084 0 0 1-.563 3.008c-.413.994-1.35 1.697-2.812 2.11-1.238.375-2.654.581-4.248.618-1.593.038-3.271.076-5.034.113z" style="fill:#190300;fill-opacity:1"/>
    <path d="M121.175 105.299v-6.187h6.75v6.187zm12.062 2.201c-.075.076-.187.113-.337.113-.375 0-.562-.187-.562-.562 0-.188.075-.338.224-.45a18.85 18.85 0 0 0 2.306-2.11 51.57 51.57 0 0 0 2.082-2.39.534.534 0 0 1 .45-.226c.375 0 .563.188.563.563 0 .15-.038.263-.113.338a27.56 27.56 0 0 1-4.613 4.724m1.688 1.495c-.075.075-.187.112-.337.112-.375 0-.562-.187-.562-.562 0-.188.074-.338.224-.45a18.849 18.849 0 0 0 2.306-2.11 51.569 51.569 0 0 0 2.082-2.39.534.534 0 0 1 .45-.225c.375 0 .563.187.563.562 0 .15-.038.263-.113.338a27.558 27.558 0 0 1-4.613 4.725z" style="fill:#190300;fill-opacity:1"/>
    <path d="M126.775 105.299v-6.187h2.193c-.037-1.576-.065-2.85-.083-3.826a47.385 47.385 0 0 0-.141-2.868c0-.113-.019-.3-.056-.563a12.098 12.098 0 0 1 0-1.659c.037-.431.225-.76.562-.984 1.687-1.126 3.131-2.607 4.331-4.444.188-.3.366-.422.534-.366.17.057.254.216.254.478 0 2.813.131 5.541.393 8.185.263 2.644.413 5.372.45 8.184.038.975-.374 1.894-1.237 2.756-.863.863-1.838 1.294-2.925 1.294z" style="fill:#190300;fill-opacity:1"/>
    <use xlink:href="#f" fill="#190300" transform="matrix(45 0 0 -45 135.55 105.299)"/>
    <path d="M170.525 93.524a.534.534 0 0 1 .45-.225c.375 0 .562.187.562.562 0 .15-.037.263-.112.338a48.405 48.405 0 0 1-2.025 2.447 51.888 51.888 0 0 1-2.194 2.334.54.54 0 0 1-.394.17c-.375 0-.562-.188-.562-.563a.54.54 0 0 1 .169-.394 48.111 48.111 0 0 0 4.106-4.669zm.406 18.581c-2.512.038-4.875-.253-7.087-.872-2.212-.618-3.919-1.321-5.119-2.109-.45-.3-.647-.582-.59-.844.056-.263.271-.469.646-.618.863-.3 1.66-.854 2.39-1.66a43.826 43.826 0 0 0 1.942-2.278c.224-.3.562-.319 1.012-.056 1.05.562 2.362 1.04 3.937 1.434 1.575.394 3.122.675 4.641.844 1.519.169 2.71.197 3.572.084.3-.037.422-.178.366-.422-.056-.243-.197-.365-.422-.365-.9.037-1.95-.01-3.15-.14a25.127 25.127 0 0 1-3.544-.647c-1.163-.3-2.175-.676-3.037-1.126-.413-.225-.591-.497-.535-.815.057-.319.197-.572.422-.76.525-.525 1.162-1.172 1.912-1.94a97.87 97.87 0 0 0 2.278-2.42c.77-.843 1.482-1.62 2.138-2.333a58.543 58.543 0 0 1 1.547-1.632l.365-.365a.495.495 0 0 1 .366-.14c.188 0 .47.13.844.393 1.238.825 2.437 1.94 3.6 3.346a21.813 21.813 0 0 1 2.925 4.613c.788 1.669 1.2 3.328 1.238 4.979a7.084 7.084 0 0 1-.563 3.008c-.413.994-1.35 1.697-2.812 2.11-1.238.375-2.654.581-4.248.618-1.593.038-3.271.076-5.034.113z" style="fill:#190300;fill-opacity:1"/>
    <path d="M175.762 104.961V93.319a22.44 22.44 0 0 1 3.123 2.784 107.38 107.38 0 0 0 2.953 3.066v5.793z" style="fill:#190300;fill-opacity:1"/>
    <path d="M176.64 105.299v-6.187h6.525a34.452 34.452 0 0 1-2.335-2.335c-.73-.806-1.49-1.622-2.277-2.446-.226-.263-.3-.554-.226-.873a1.05 1.05 0 0 1 .506-.703c.713-.487 1.36-1.125 1.94-1.912a41.834 41.834 0 0 0 1.942-2.925c.15-.225.338-.31.562-.253.226.056.413.178.563.366.562.787 1.2 1.556 1.913 2.305a44.845 44.845 0 0 0 2.896-3.177 116.72 116.72 0 0 0 2.447-3.066c.3-.413.572-.61.815-.59.244.018.385.234.423.646.337 2.138.6 4.575.787 7.313a209.7 209.7 0 0 1 .394 7.65h.45v6.187z" style="fill:#190300;fill-opacity:1"/>
    <use xlink:href="#i" fill="#190300" transform="matrix(45 0 0 -45 193.55 105.299)"/>
    <use xlink:href="#f" fill="#190300" transform="matrix(45 0 0 -45 200.8 105.299)"/>
    <use xlink:href="#j" fill="#190300" transform="matrix(45 0 0 -45 223.3 105.299)"/>
    <use xlink:href="#f" fill="#190300" transform="matrix(45 0 0 -45 256.105 105.299)"/>
    <use xlink:href="#g" fill="#190300" transform="matrix(45 0 0 -45 278.65 105.299)"/>
    <use xlink:href="#h" fill="#190300" transform="matrix(45 0 0 -45 306.35 105.299)"/>
    <use xlink:href="#i" fill="#190300" transform="matrix(45 0 0 -45 324.35 105.299)"/>
    <use xlink:href="#f" fill="#190300" transform="matrix(45 0 0 -45 331.65 105.299)"/>
    <use xlink:href="#D" fill="#190300" transform="matrix(45 0 0 -45 354.15 105.299)"/>
    <use xlink:href="#j" fill="#190300" transform="matrix(45 0 0 -45 407.6 105.299)"/>
    <path d="M114.863 164.812c-4.05 0-7.19-.376-9.422-1.126-2.232-.75-3.928-1.912-5.09-3.487-.3-.413-.339-.732-.114-.957a1.08 1.08 0 0 1 .788-.337c.413 0 .938-.206 1.575-.619a13.25 13.25 0 0 0 1.857-1.462c.6-.562 1.012-1.05 1.237-1.463.188-.337.469-.421.844-.252.375.168.694.365.956.59.938.825 2.11 1.453 3.516 1.884a21.04 21.04 0 0 0 4.274.844c1.444.131 2.729.178 3.854.14 1.125-.037 1.894-.093 2.306-.168.45-.075.666-.272.647-.59-.019-.32-.216-.46-.59-.422-2.026.15-3.9.177-5.626.084-1.725-.094-3.244-.403-4.556-.928-1.312-.525-2.334-1.369-3.066-2.531-.731-1.163-1.097-2.72-1.097-4.67 0-1.237.188-2.493.563-3.768a12.322 12.322 0 0 1 1.687-3.543 8.723 8.723 0 0 1 2.897-2.644c1.181-.675 2.56-1.013 4.135-1.013 1.987 0 3.544.338 4.668 1.013 1.126.675 2.213 1.687 3.263 3.037.938 1.2 1.575 2.438 1.913 3.713.337 1.275.618 2.23.843 2.868.188.487.469.928.844 1.322s.881.591 1.519.591v6.131c0 2.325-.638 4.04-1.913 5.146-1.275 1.107-3.018 1.82-5.231 2.138-2.213.319-4.706.479-7.481.479m2.7-16.032c.45 0 .675-.243.675-.73a.65.65 0 0 0-.198-.479.65.65 0 0 0-.477-.197c-.488 0-.732.225-.732.675 0 .488.244.731.732.731z" style="fill:#190300;fill-opacity:1"/>
    <use xlink:href="#p" fill="#190300" transform="matrix(45 0 0 -45 124.2 140.449)"/>
    <path d="M125.375 157.049v-6.187h2.193a934.15 934.15 0 0 1-.083-3.826 47.386 47.386 0 0 0-.141-2.868c0-.113-.019-.3-.056-.563a12.098 12.098 0 0 1 0-1.659c.037-.431.225-.76.562-.984 1.687-1.126 3.131-2.607 4.331-4.444.188-.3.366-.422.534-.366.17.057.254.216.254.478 0 2.813.131 5.541.393 8.185.263 2.644.413 5.372.45 8.184.038.975-.374 1.894-1.237 2.756-.863.863-1.838 1.294-2.925 1.294z" style="fill:#190300;fill-opacity:1"/>
    <use xlink:href="#f" fill="#190300" transform="matrix(45 0 0 -45 135.55 157.049)"/>
    <use xlink:href="#k" fill="#190300" transform="matrix(45 0 0 -45 157.6 146.349)"/>
    <use xlink:href="#n" fill="#190300" transform="matrix(45 0 0 -45 158.1 157.049)"/>
    <use xlink:href="#o" fill="#190300" transform="matrix(45 0 0 -45 173.9 157.049)"/>
    <use xlink:href="#o" fill="#190300" transform="matrix(45 0 0 -45 175.925 157.049)"/>
    <use xlink:href="#o" fill="#190300" transform="matrix(45 0 0 -45 177.95 157.049)"/>
    <use xlink:href="#o" fill="#190300" transform="matrix(45 0 0 -45 179.975 157.049)"/>
    <use xlink:href="#f" fill="#190300" transform="matrix(45 0 0 -45 183.665 157.049)"/>
    <use xlink:href="#k" fill="#190300" transform="matrix(45 0 0 -45 214.85 134.849)"/>
    <path d="M222.337 157.78c-3.187.038-5.896-.103-8.128-.422-2.231-.319-3.89-.984-4.978-1.997a5.753 5.753 0 0 1-1.744-2.643 12.627 12.627 0 0 1-.59-3.234 548.529 548.529 0 0 1-.14-2.897 182.082 182.082 0 0 1-.029-5.428c.019-1.557.047-2.972.084-4.247.038-1.875.047-3.553.029-5.035a63.002 63.002 0 0 0-.253-4.753c0-.15-.019-.356-.056-.62-.188-1.649-.272-2.783-.254-3.401.02-.62.253-1.079.703-1.38.75-.45 1.463-.993 2.137-1.63.675-.638 1.294-1.463 1.857-2.475.188-.3.422-.431.703-.394.282.038.441.338.479.9.187 2.625.252 5.363.196 8.213-.056 2.85-.122 5.53-.196 8.043-.075 2.25-.122 4.266-.141 6.047-.019 1.782.047 3.103.197 3.966.337 1.8 1.106 3.234 2.306 4.303s2.681 1.847 4.444 2.335c1.762.487 3.674.759 5.737.815a44.593 44.593 0 0 0 6.131-.253c.338-.038.516-.216.535-.534.018-.32-.178-.46-.59-.423-5.326.526-9.273.282-11.842-.73-2.569-1.013-4.04-2.626-4.415-4.838-.375-2.475-.16-4.772.647-6.89.806-2.12 2.09-3.826 3.853-5.12 1.762-1.293 3.862-1.921 6.3-1.884 1.65 0 3.225.497 4.725 1.49 1.5.995 2.831 2.363 3.993 4.107 1.163 1.744 2.072 3.76 2.728 6.047.657 2.287.985 4.743.985 7.369 0 1.837-.45 3.3-1.35 4.387-.9 1.088-2.465 1.875-4.697 2.362-2.23.488-5.353.77-9.365.844m4.5-15.637c.45 0 .675-.244.675-.732a.65.65 0 0 0-.197-.478.65.65 0 0 0-.478-.197c-.488 0-.731.225-.731.675 0 .488.243.732.73.732z" style="fill:#190300;fill-opacity:1"/>
    <use xlink:href="#f" fill="#190300" transform="matrix(45 0 0 -45 239.45 157.049)"/>
    <path d="M282.088 159.58c-3.038 0-5.944-.038-8.72-.113-2.774-.074-5.137-.3-7.087-.675-1.95-.375-3.243-.974-3.88-1.8a2.476 2.476 0 0 1-.338-.842c-.075-.338.15-.601.675-.789 1.087-.412 1.997-.88 2.728-1.405.731-.525 1.378-1.257 1.94-2.194a.846.846 0 0 1 .647-.45c.281-.038.572 0 .872.112a18.87 18.87 0 0 0 2.081.563c.713.15 1.444.262 2.194.337-.488-2.812-.31-5.24.534-7.284.844-2.044 2.091-3.62 3.741-4.725 1.65-1.107 3.413-1.66 5.288-1.66 1.987 0 3.768.619 5.343 1.857 1.576 1.237 2.823 2.887 3.741 4.95.919 2.062 1.378 4.312 1.378 6.75 0 1.875-.318 3.318-.956 4.33-.638 1.013-1.454 1.735-2.447 2.167a9.445 9.445 0 0 1-3.15.758 46.236 46.236 0 0 1-3.122.113h-1.462m1.743-10.237c.45 0 .675-.244.675-.732a.65.65 0 0 0-.197-.477.65.65 0 0 0-.478-.197c-.487 0-.73.225-.73.674 0 .488.243.732.73.732zm10.106 13.507c-.075.076-.187.113-.337.113-.375 0-.562-.187-.562-.562 0-.188.075-.338.224-.45a18.85 18.85 0 0 0 2.306-2.11 51.57 51.57 0 0 0 2.082-2.39.534.534 0 0 1 .45-.226c.375 0 .563.188.563.563 0 .15-.038.263-.113.338a27.56 27.56 0 0 1-4.613 4.724m1.688 1.495c-.075.075-.187.112-.337.112-.375 0-.562-.187-.562-.562 0-.188.075-.338.224-.45a18.849 18.849 0 0 0 2.306-2.11 51.569 51.569 0 0 0 2.082-2.39.534.534 0 0 1 .45-.225c.375 0 .563.187.563.562 0 .15-.038.263-.113.338a27.558 27.558 0 0 1-4.613 4.725z" style="fill:#190300;fill-opacity:1"/>
    <path d="M296.35 157.049c-1.012 0-1.819-.3-2.419-.9-.6-.6-.919-1.387-.956-2.362a848.94 848.94 0 0 1-.084-3.966 263.03 263.03 0 0 0-.113-4.275 27.24 27.24 0 0 0-.14-1.885c-.038-.3 0-.6.112-.899.112-.3.356-.507.731-.62.526-.187 1.125-.72 1.8-1.602a68.926 68.926 0 0 0 2.307-3.235.737.737 0 0 1 .702-.28c.282.036.441.318.479.843l.197 3.543c.056 1.013.121 2.035.196 3.066.075 1.032.169 2.278.282 3.741.075.637.169 1.218.281 1.743.113.526.338.826.675.9v6.188z" style="fill:#190300;fill-opacity:1"/>
    <path d="M298.788 157.049v-7.931h.618c.188.487.713.806 1.575.956.863.15 2.457.281 4.782.393 4.2.226 8.071.31 11.615.254a696.27 696.27 0 0 0 10.716-.254 108.975 108.975 0 0 0 4.837-.112c1.125-.037 1.575-.243 1.35-.619-.037-.112-.14-.177-.31-.196a3.921 3.921 0 0 0-.421-.028c-.713 0-1.481.009-2.307.028-.825.019-1.706.028-2.643.028-2.363.037-4.932.075-7.706.113-2.775.037-5.485.027-8.128-.029-2.644-.056-4.94-.16-6.89-.31-1.35-.112-2.476-.243-3.376-.393-.9-.15-1.481-.3-1.744-.45-.262-.15-.3-.357-.112-.619l7.818-9.844c.263-.3.516-.384.76-.252.243.13.234.402-.028.815l-2.87 4.444c3.226.375 6.723.553 10.491.534 3.77-.019 7.585-.066 11.448-.14l5.062-.113a222.96 222.96 0 0 1 4.95-.056c.488 0 .881.281 1.181.843.863 1.5 1.566 3.244 2.11 5.232.543 1.987.815 3.768.815 5.343 0 .826-.187 1.426-.562 1.8v.563z" style="fill:#190300;fill-opacity:1"/>
    <use xlink:href="#v" fill="#190300" transform="matrix(45 0 0 -45 341.85 157.049)"/>
    <use xlink:href="#r" fill="#190300" transform="matrix(45 0 0 -45 341.85 157.049)"/>
    <use xlink:href="#s" fill="#190300" transform="matrix(45 0 0 -45 352.95 157.049)"/>
    <use xlink:href="#f" fill="#190300" transform="matrix(45 0 0 -45 384.945 157.049)"/>
    <use xlink:href="#j" fill="#190300" transform="matrix(45 0 0 -45 407.445 157.049)"/>
    <use xlink:href="#D" fill="#190300" transform="matrix(45 0 0 -45 100.2 208.799)"/>
    <use xlink:href="#f" fill="#190300" transform="matrix(45 0 0 -45 138.25 208.799)"/>
    <use xlink:href="#o" fill="#190300" transform="matrix(45 0 0 -45 160.75 208.799)"/>
    <use xlink:href="#o" fill="#190300" transform="matrix(45 0 0 -45 162.775 208.799)"/>
    <use xlink:href="#o" fill="#190300" transform="matrix(45 0 0 -45 164.8 208.799)"/>
    <path d="M166.735 208.799Z" style="fill:#190300;fill-opacity:1"/>
    <use xlink:href="#o" fill="#190300" transform="matrix(45 0 0 -45 173.53 208.799)"/>
    <use xlink:href="#j" fill="#190300" transform="matrix(45 0 0 -45 175.555 208.799)"/>
    <use xlink:href="#f" fill="#190300" transform="matrix(45 0 0 -45 215.155 208.799)"/>
    <use xlink:href="#k" fill="#190300" transform="matrix(45 0 0 -45 237.25 198.099)"/>
    <use xlink:href="#n" fill="#190300" transform="matrix(45 0 0 -45 237.75 208.799)"/>
    <use xlink:href="#f" fill="#190300" transform="matrix(45 0 0 -45 260.7 208.799)"/>
    <use xlink:href="#k" fill="#190300" transform="matrix(45 0 0 -45 291.8 186.599)"/>
    <path d="M299.287 209.53c-3.187.038-5.896-.103-8.128-.422-2.231-.319-3.89-.984-4.978-1.997a5.753 5.753 0 0 1-1.744-2.643 12.627 12.627 0 0 1-.59-3.234 548.529 548.529 0 0 1-.14-2.897 182.082 182.082 0 0 1-.029-5.428c.019-1.557.047-2.972.084-4.247.038-1.875.047-3.553.029-5.035a63.002 63.002 0 0 0-.253-4.753c0-.15-.019-.356-.056-.62-.188-1.649-.272-2.783-.254-3.401.02-.62.253-1.079.703-1.38.75-.45 1.463-.993 2.137-1.63.675-.638 1.294-1.463 1.857-2.475.188-.3.422-.431.703-.394.282.038.441.338.479.9.187 2.625.252 5.363.196 8.213-.056 2.85-.122 5.53-.196 8.043-.075 2.25-.122 4.266-.141 6.047-.019 1.782.047 3.103.197 3.966.337 1.8 1.106 3.234 2.306 4.303s2.681 1.847 4.444 2.335c1.762.487 3.674.759 5.737.815a44.593 44.593 0 0 0 6.131-.253c.338-.038.516-.216.535-.534.018-.32-.179-.46-.591-.423-5.325.526-9.272.282-11.841-.73-2.569-1.013-4.04-2.626-4.415-4.838-.375-2.475-.16-4.772.647-6.89.806-2.12 2.09-3.826 3.853-5.12 1.762-1.293 3.862-1.921 6.3-1.884 1.65 0 3.225.497 4.725 1.49 1.5.995 2.831 2.363 3.993 4.107 1.163 1.744 2.072 3.76 2.728 6.047.657 2.287.985 4.743.985 7.369 0 1.837-.45 3.3-1.35 4.387-.9 1.088-2.465 1.875-4.697 2.362-2.23.488-5.353.77-9.365.844m4.5-15.637c.45 0 .675-.244.675-.732a.65.65 0 0 0-.197-.478.65.65 0 0 0-.478-.197c-.488 0-.731.225-.731.675 0 .488.243.732.73.732z" style="fill:#190300;fill-opacity:1"/>
    <use xlink:href="#f" fill="#190300" transform="matrix(45 0 0 -45 321.85 208.799)"/>
    <use xlink:href="#j" fill="#190300" transform="matrix(45 0 0 -45 344.35 208.799)"/>
    <use xlink:href="#f" fill="#190300" transform="matrix(45 0 0 -45 383.95 208.799)"/>
    <path d="M421.368 216.562c-4.05 0-7.19-.376-9.422-1.126-2.232-.75-3.928-1.912-5.09-3.487-.3-.413-.339-.732-.114-.957a1.08 1.08 0 0 1 .788-.337c.413 0 .938-.206 1.575-.619a13.25 13.25 0 0 0 1.857-1.462c.6-.562 1.012-1.05 1.237-1.463.188-.337.469-.421.844-.252.375.168.694.365.956.59.938.825 2.11 1.453 3.516 1.884 1.406.431 2.83.713 4.274.844s2.729.178 3.854.14c1.125-.037 1.894-.093 2.306-.168.45-.075.666-.272.647-.59-.019-.32-.216-.46-.59-.422-2.026.15-3.9.177-5.626.084-1.725-.094-3.244-.403-4.556-.928-1.313-.525-2.334-1.369-3.066-2.531-.731-1.163-1.097-2.72-1.097-4.67 0-1.237.188-2.493.563-3.768a12.322 12.322 0 0 1 1.687-3.543 8.723 8.723 0 0 1 2.897-2.644c1.181-.675 2.56-1.013 4.135-1.013 1.987 0 3.544.338 4.668 1.013 1.126.675 2.213 1.687 3.263 3.037.938 1.2 1.575 2.438 1.913 3.713.337 1.275.618 2.23.843 2.868.188.487.469.928.844 1.322s.881.591 1.519.591v6.131c0 2.325-.638 4.04-1.913 5.146-1.275 1.107-3.018 1.82-5.231 2.138-2.213.319-4.706.479-7.481.479m2.7-16.032c.45 0 .675-.243.675-.73a.65.65 0 0 0-.198-.479.65.65 0 0 0-.477-.197c-.488 0-.732.225-.732.675 0 .488.244.731.732.731z" style="fill:#190300;fill-opacity:1"/>
    <use xlink:href="#i" fill="#190300" transform="matrix(45 0 0 -45 433.1 208.799)"/>
    <use xlink:href="#k" fill="#190300" transform="matrix(45 0 0 -45 99.5 252.649)"/>
    <use xlink:href="#y" fill="#190300" transform="matrix(45 0 0 -45 100 260.549)"/>
    <path d="M119.087 262.75c-.075.076-.187.113-.337.113-.375 0-.562-.187-.562-.562 0-.188.075-.338.224-.45a18.85 18.85 0 0 0 2.306-2.11 51.57 51.57 0 0 0 2.082-2.39.534.534 0 0 1 .45-.226c.375 0 .563.188.563.563 0 .15-.038.263-.113.338a27.56 27.56 0 0 1-4.613 4.724m1.688 1.495c-.075.075-.187.112-.337.112-.375 0-.562-.187-.562-.562 0-.188.074-.338.224-.45a18.849 18.849 0 0 0 2.306-2.11 51.569 51.569 0 0 0 2.082-2.39.534.534 0 0 1 .45-.225c.375 0 .563.187.563.562 0 .15-.038.263-.113.338a27.558 27.558 0 0 1-4.613 4.725zm-8.15-3.696v-6.187h2.193a934.15 934.15 0 0 1-.083-3.826 47.386 47.386 0 0 0-.141-2.868c0-.113-.019-.3-.056-.563a12.098 12.098 0 0 1 0-1.659c.037-.431.225-.76.562-.984 1.687-1.126 3.131-2.607 4.331-4.444.188-.3.366-.422.534-.366.17.057.254.216.254.478 0 2.813.131 5.541.393 8.185.263 2.644.413 5.372.45 8.184.038.975-.374 1.894-1.237 2.756-.863.863-1.838 1.294-2.925 1.294z" style="fill:#190300;fill-opacity:1"/>
    <use xlink:href="#l" fill="#190300" transform="matrix(45 0 0 -45 143.55 260.549)"/>
    <path d="M190.825 260.549v-6.187h3.15c-.15-.45-.3-.872-.45-1.266a9.472 9.472 0 0 1-.338-1.04c-.112-.376-.112-.647 0-.816.113-.169.32-.328.619-.478a4.565 4.565 0 0 0 1.857-1.519 33.954 33.954 0 0 0 1.63-2.531c.45-.75.807-.713 1.07.112.525 1.725 1.022 3.028 1.49 3.91.469.88.966 1.527 1.491 1.94a6.59 6.59 0 0 1-.225-.506c-.188-.45-.076-.788.337-1.013.75-.375 1.435-.928 2.053-1.659.619-.731 1.21-1.866 1.772-3.403.075-.263.206-.413.394-.45.187-.038.319.093.394.394a27.232 27.232 0 0 0 1.293 3.206 32.51 32.51 0 0 0 1.52 2.812c0-.337-.02-.73-.057-1.18-.037-.676.187-1.107.675-1.294 1.088-.338 1.847-.93 2.278-1.773.432-.843.89-1.678 1.378-2.503.3-.525.572-.787.815-.787.244 0 .404.262.479.787.375 2.475.834 4.369 1.378 5.682.544 1.312 1.106 2.203 1.687 2.672.582.468 1.135.703 1.66.703v6.187z" style="fill:#190300;fill-opacity:1"/>
    <use xlink:href="#k" fill="#190300" transform="matrix(45 0 0 -45 214.7 241.849)"/>
    <use xlink:href="#w" fill="#190300" transform="matrix(45 0 0 -45 215.2 260.549)"/>
    <path d="M247.65 260.999c-.787 0-1.603-.038-2.447-.113a27.489 27.489 0 0 1-2.503-.337h-7.425v-6.187h1.969c-.038-3 .487-5.504 1.574-7.51 1.088-2.006 2.457-3.515 4.107-4.528 1.65-1.013 3.319-1.519 5.007-1.519 1.687 0 3.234.553 4.64 1.66 1.406 1.106 2.569 2.671 3.487 4.696.92 2.026 1.472 4.426 1.66 7.2h.056v6.188h-3.994a13.55 13.55 0 0 1-3.178.422c-1.106.018-2.09.028-2.953.028m.562-9.844c.45 0 .675-.244.675-.731a.65.65 0 0 0-.197-.478.65.65 0 0 0-.478-.197c-.487 0-.73.225-.73.675 0 .487.243.731.73.731z" style="fill:#190300;fill-opacity:1"/>
    <use xlink:href="#i" fill="#190300" transform="matrix(45 0 0 -45 257.8 260.549)"/>
    <use xlink:href="#f" fill="#190300" transform="matrix(45 0 0 -45 277.25 260.549)"/>
    <use xlink:href="#A" fill="#190300" transform="matrix(45 0 0 -45 299.705 260.549)"/>
    <path d="M310.537 262.745c-.075.075-.187.112-.337.112-.375 0-.562-.187-.562-.562 0-.188.075-.338.224-.45a18.85 18.85 0 0 0 2.306-2.11 51.575 51.575 0 0 0 2.082-2.39.534.534 0 0 1 .45-.225c.375 0 .563.187.563.562 0 .15-.038.263-.113.338a27.56 27.56 0 0 1-4.613 4.725zm-6.462-2.196v-6.187h2.193a934.15 934.15 0 0 1-.083-3.826 47.386 47.386 0 0 0-.141-2.868c0-.113-.019-.3-.056-.563a12.098 12.098 0 0 1 0-1.659c.037-.431.225-.76.562-.984 1.687-1.126 3.131-2.607 4.331-4.444.188-.3.366-.422.534-.366.17.057.254.216.254.478 0 2.813.131 5.541.393 8.185.263 2.644.413 5.372.45 8.184.038.975-.374 1.894-1.237 2.756-.863.863-1.838 1.294-2.925 1.294zm8.375 0z" style="fill:#190300;fill-opacity:1"/>
    <use xlink:href="#f" fill="#190300" transform="matrix(45 0 0 -45 331.755 260.549)"/>
    <path d="M374.438 263.08c-3.038 0-5.944-.038-8.72-.113-2.774-.074-5.137-.3-7.087-.675-1.95-.375-3.243-.974-3.88-1.8a2.476 2.476 0 0 1-.338-.843c-.075-.337.15-.6.675-.788 1.087-.412 1.997-.88 2.728-1.405.731-.525 1.378-1.257 1.94-2.194a.846.846 0 0 1 .647-.45c.281-.038.572 0 .872.112a18.87 18.87 0 0 0 2.081.563c.713.15 1.444.262 2.194.337-.488-2.812-.31-5.24.534-7.284.844-2.044 2.091-3.62 3.741-4.725 1.65-1.107 3.413-1.66 5.288-1.66 1.987 0 3.768.619 5.343 1.857 1.576 1.237 2.823 2.887 3.741 4.95.919 2.062 1.378 4.312 1.378 6.75 0 1.875-.318 3.318-.956 4.33-.638 1.013-1.454 1.735-2.447 2.167a9.445 9.445 0 0 1-3.15.758 46.236 46.236 0 0 1-3.122.113h-1.462m1.743-10.237c.45 0 .675-.244.675-.732a.65.65 0 0 0-.197-.477.65.65 0 0 0-.478-.197c-.487 0-.73.225-.73.674 0 .488.243.732.73.732zm10.106 13.507c-.075.076-.187.113-.337.113-.375 0-.562-.187-.562-.562 0-.188.075-.338.224-.45a18.85 18.85 0 0 0 2.306-2.11 51.57 51.57 0 0 0 2.082-2.39.534.534 0 0 1 .45-.226c.375 0 .563.188.563.563 0 .15-.038.263-.113.338a27.56 27.56 0 0 1-4.613 4.724m1.688 1.495c-.075.075-.187.112-.337.112-.375 0-.562-.187-.562-.562 0-.188.074-.338.224-.45a18.849 18.849 0 0 0 2.306-2.11 51.569 51.569 0 0 0 2.082-2.39.534.534 0 0 1 .45-.225c.375 0 .563.187.563.562 0 .15-.038.263-.113.338a27.558 27.558 0 0 1-4.613 4.725z" style="fill:#190300;fill-opacity:1"/>
    <path d="M388.7 260.549c-1.012 0-1.819-.3-2.419-.9-.6-.6-.919-1.387-.956-2.362a848.94 848.94 0 0 1-.084-3.966 263.03 263.03 0 0 0-.113-4.275 27.24 27.24 0 0 0-.14-1.885c-.038-.3 0-.6.112-.899.112-.3.356-.507.731-.62.526-.187 1.125-.72 1.8-1.602a68.926 68.926 0 0 0 2.307-3.235.737.737 0 0 1 .702-.28c.282.036.441.318.479.843l.197 3.543c.056 1.013.121 2.035.196 3.066.075 1.032.169 2.278.282 3.741.075.637.169 1.218.281 1.743.113.526.338.826.675.9v6.188z" style="fill:#190300;fill-opacity:1"/>
    <path d="M390.625 260.549v-6.187h2.138a267.1 267.1 0 0 0-.254-7.988 1134.303 1134.303 0 0 0-.985-18.112 1.5 1.5 0 0 0-.056-.338 3.506 3.506 0 0 1-.028-.787c.02-.3.197-.6.535-.9.338-.263.769-.629 1.294-1.098a22.824 22.824 0 0 0 1.519-1.49c.487-.525.843-.994 1.068-1.407.3-.524.6-.72.9-.59.3.132.469.516.506 1.153.188 3.675.366 7.388.535 11.138.168 3.75.337 7.34.506 10.772.169 3.43.29 6.534.366 9.309.037.637.037 1.2 0 1.688v4.837z" style="fill:#190300;fill-opacity:1"/>
    <path d="M397.031 245.699h1.294c.075 2.812.712 4.894 1.912 6.244 1.2 1.35 2.494 2.156 3.882 2.419v6.187h-7.088z" style="fill:#190300;fill-opacity:1"/>
    <path d="M399.315 260.549v-6.187h4.781c-1.05-1.013-1.762-2.204-2.137-3.572-.375-1.369-.131-2.503.731-3.403a42.98 42.98 0 0 1 1.687-1.716l2.391-2.334a181.19 181.19 0 0 1 2.278-2.194 80.914 80.914 0 0 0 1.35-1.294c.413-.413.722-.488.928-.225.206.262.16.562-.14.9-.225.262-.535.684-.928 1.266-.394.58-.788 1.171-1.181 1.771-.394.6-.685 1.07-.872 1.407-.526.9-.376 1.875.45 2.925.825 1.05 2.165 2.053 4.022 3.01 1.856.956 4.059 1.752 6.609 2.39 2.475.637 4.678 1.06 6.61 1.266 1.93.206 3.852.29 5.765.252a248.39 248.39 0 0 0 6.525-.225c.187 0 .384-.009.59-.027.207-.02.404-.029.591-.029.488-.037.732.057.732.282 0 .225-.113.43-.338.618-.713.525-1.51 1.238-2.391 2.138-.881.9-1.64 1.574-2.278 2.024-.187.15-.375.273-.563.366a1.243 1.243 0 0 1-.562.141c-3.375.112-6.46.206-9.253.281a570.898 570.898 0 0 1-16.2.225c-2.794 0-5.86-.019-9.197-.056z" style="fill:#190300;fill-opacity:1"/>
    <use xlink:href="#F" transform="matrix(45 0 0 -45 95.45 106.899)"/>
    <use xlink:href="#G" transform="matrix(45 0 0 -45 290.25 88.399)"/>
    <use xlink:href="#G" transform="matrix(45 0 0 -45 317.05 79.999)"/>
    <use xlink:href="#G" transform="matrix(45 0 0 -45 363.45 84.799)"/>
    <use xlink:href="#G" transform="matrix(45 0 0 -45 125.8 137.849)"/>
    <use xlink:href="#H" transform="matrix(45 0 0 -45 209.55 164.449)"/>
    <use xlink:href="#F" transform="matrix(45 0 0 -45 256.65 157.849)"/>
    <use xlink:href="#G" transform="matrix(45 0 0 -45 109.5 188.299)"/>
    <use xlink:href="#G" transform="matrix(45 0 0 -45 238.05 194.299)"/>
    <use xlink:href="#H" transform="matrix(45 0 0 -45 286.5 216.199)"/>
    <use xlink:href="#G" transform="matrix(45 0 0 -45 425.8 183.499)"/>
    <use xlink:href="#G" transform="matrix(45 0 0 -45 100.3 248.949)"/>
    <use xlink:href="#I" transform="matrix(45 0 0 -45 199.85 267.549)"/>
    <use xlink:href="#J" fill="#902900" fill-opacity=".902" style="fill:#852803" transform="matrix(45 0 0 -45 349 265.149)"/>
    <use xlink:href="#G" transform="matrix(45 0 0 -45 578.65 88.399)"/>
    <use xlink:href="#G" transform="matrix(45 0 0 -45 605.45 79.999)"/>
    <use xlink:href="#G" transform="matrix(45 0 0 -45 777.6 79.999)"/>
    <use xlink:href="#G" transform="matrix(45 0 0 -45 821.75 90.799)"/>
    <use xlink:href="#H" transform="matrix(45 0 0 -45 884.95 114.199)"/>
    <use xlink:href="#F" transform="matrix(45 0 0 -45 558.85 152.949)"/>
    <use xlink:href="#F" transform="matrix(45 0 0 -45 721.05 157.849)"/>
    <use xlink:href="#H" transform="matrix(45 0 0 -45 577.55 217.699)"/>
    <use xlink:href="#K" transform="matrix(45 0 0 -45 639 215.899)"/>
    <use xlink:href="#H" transform="matrix(45 0 0 -45 696.25 217.699)"/>
    <use xlink:href="#I" transform="matrix(45 0 0 -45 775.3 217.399)"/>
    <use xlink:href="#G" transform="matrix(45 0 0 -45 567.35 246.049)"/>
    <use xlink:href="#H" transform="matrix(45 0 0 -45 627.35 269.449)"/>
    <use xlink:href="#F" transform="matrix(45 0 0 -45 738.9 258.949)"/>
</svg>
