<?xml version="1.0" encoding="UTF-8"?>
<svg width="480" height="480" version="1.1" viewBox="-60 0 480 480" xmlns="http://www.w3.org/2000/svg">
 <rect x="-60" width="480" height="480" fill="#feeec9"/>
 <g transform="translate(-215.35 -234.42)" direction="rtl" style="shape-inside:url(#rect228-7);white-space:pre" aria-label="ق">
  <path d="m533.05 653.98q-63.6 18-116.4 15.6-52.8-1.8-96.6-20.4-4.8-1.8-7.8-6-2.4-3.6 2.4-7.2 10.8-7.8 23.4-21t27-30q4.2-4.8 10.8 0.6 12 10.8 40.8 14.4 29.4 3.6 73.2 0.6 0-8.4-13.8-8.4-27 0-50.4-1.8-22.8-1.2-42-9-8.4-3.6-8.4-13.2 0.6-9.6 5.4-15.6 10.8-12.6 21.6-27 11.4-15 21-30.6-13.2 2.4-34.2 2.4-59.4 0-87.6-19.2-27.6-19.8-27.6-54.6 0-29.4 12.6-57t34.8-45.6q22.8-18 52.8-18 21 0 38.4 14.4 18 14.4 30.6 36.6 13.2 21.6 20.4 45.6 7.2 23.4 7.2 41.4 0 21.6-6.6 38.4-6 16.2-15 31.2-4.2 7.2-1.8 9 3 1.8 9.6 2.4 17.4 1.2 34.2 1.8 17.4 0 34.2 2.4 8.4 0.6 12.6 7.2 4.8 7.2 7.2 15.6 5.4 15.6 7.8 33.6t2.4 38.4q0 12-6 21-5.4 9-16.2 12zm-162.6-253.8q7.2 0 7.2-7.8 0-3-2.4-4.8-1.8-2.4-4.8-2.4-7.8 0-7.8 7.2 0 7.8 7.8 7.8z"/>
  <path d="m241.45 340.18q-6 0-6-6 0-3 2.4-4.8 13.2-10.2 24.6-22.2 11.4-12.6 22.2-25.8 1.8-2.4 4.8-2.4 6 0 6 6 0 2.4-1.2 3.6-22.2 28.8-49.2 50.4-1.2 1.2-3.6 1.2zm18 16.2q-6 0-6-6 0-3 2.4-4.8 13.2-10.2 24.6-22.2 11.4-12.6 22.2-25.8 1.8-2.4 4.8-2.4 6 0 6 6 0 2.4-1.2 3.6-22.2 28.8-49.2 50.4-1.2 1.2-3.6 1.2z"/>
 </g>
</svg>
